<svg width="1920" height="1080" xmlns="http://www.w3.org/2000/svg">
  <defs>
    <linearGradient id="grad1" x1="0%" y1="0%" x2="100%" y2="100%">
      <stop offset="0%" style="stop-color:rgb(20,30,50);stop-opacity:1" />
      <stop offset="100%" style="stop-color:rgb(40,60,90);stop-opacity:1" />
    </linearGradient>
  </defs>
  <rect width="1920" height="1080" fill="url(#grad1)" />
  <!-- Abstract crowd -->
  <circle cx="200" cy="800" r="50" fill="#556677" opacity="0.5" />
  <circle cx="300" cy="850" r="60" fill="#667788" opacity="0.5" />
  <circle cx="400" cy="800" r="50" fill="#556677" opacity="0.5" />
  <circle cx="500" cy="880" r="70" fill="#778899" opacity="0.5" />
  <circle cx="600" cy="820" r="55" fill="#667788" opacity="0.5" />
  <circle cx="700" cy="860" r="65" fill="#556677" opacity="0.5" />
  <circle cx="800" cy="810" r="50" fill="#778899" opacity="0.5" />
  <circle cx="900" cy="890" r="75" fill="#667788" opacity="0.5" />
  <circle cx="1000" cy="830" r="60" fill="#556677" opacity="0.5" />
  <circle cx="1100" cy="870" r="70" fill="#778899" opacity="0.5" />
  <circle cx="1200" cy="820" r="55" fill="#667788" opacity="0.5" />
  <circle cx="1300" cy="880" r="65" fill="#556677" opacity="0.5" />
  <circle cx="1400" cy="810" r="50" fill="#778899" opacity="0.5" />
  <circle cx="1500" cy="860" r="60" fill="#667788" opacity="0.5" />
  <circle cx="1600" cy="800" r="55" fill="#556677" opacity="0.5" />
  <circle cx="1700" cy="890" r="70" fill="#778899" opacity="0.5" />
  <text x="50%" y="50%" dominant-baseline="middle" text-anchor="middle" font-family="Arial" font-size="60" fill="#ffffff" opacity="0.3">Association Photo Placeholder</text>
  <text x="50%" y="60%" dominant-baseline="middle" text-anchor="middle" font-family="Arial" font-size="30" fill="#ffffff" opacity="0.3">(Please replace with actual photo)</text>
</svg>
